<?xml version="1.0" encoding="UTF-8" standalone="no"?>
<svg
   xmlns:dc="http://purl.org/dc/elements/1.1/"
   xmlns:cc="http://creativecommons.org/ns#"
   xmlns:rdf="http://www.w3.org/1999/02/22-rdf-syntax-ns#"
   xmlns:svg="http://www.w3.org/2000/svg"
   xmlns="http://www.w3.org/2000/svg"
   xml:space="preserve"
   enable-background="new 0 0 1038.723 178.212"
   viewBox="0 0 1039.0639 154.565"
   height="154.565"
   width="1039.064"
   y="0px"
   x="0px"
   id="Layer_1"
   version="1.1"><defs
     id="defs3409" /><g
     transform="translate(0,-24.384001)"
     id="g3283"><path
       style="fill:#4e4e50"
       id="path3285"
       d="m 26.618,89.771 19.259,56.426 12.512,-37.413 c 2.208,-6.501 4.171,-12.88 5.888,-18.276 l 25.883,0 -25.76,63.172 c -4.171,10.305 -6.624,16.314 -8.955,23.43 L 36.064,178.214 10.427,115.901 C 7.359,108.17 3.435,98.357 0,90.874 l 26.618,-1.103 z" /><path
       style="fill:#4e4e50"
       id="path3287"
       d="m 115.668,135.893 c 0,-27.354 18.154,-47.472 45.264,-47.472 25.883,0 42.933,19.014 42.933,43.056 0,27.354 -18.276,47.472 -45.263,47.472 -25.883,-0.001 -42.934,-19.137 -42.934,-43.056 z m 64.277,-1.84 c 0,-16.438 -8.342,-26.496 -19.995,-26.496 -12.389,0 -20.485,11.653 -20.485,25.76 0,16.438 8.465,26.496 20.117,26.496 12.39,-10e-4 20.363,-11.654 20.363,-25.76 z" /><path
       style="fill:#4e4e50"
       id="path3289"
       d="m 229.74,176.74 29.808,-44.159 -11.653,-17.051 -16.806,-24.656 27.109,-0.98 17.664,27.6 6.01,-10.305 c 3.067,-5.028 7.36,-11.898 10.427,-16.682 l 26.741,0 -28.458,42.688 10.549,15.455 c 4.907,7.36 13.248,20.117 18.646,28.091 l -27.354,0.981 -18.154,-29.317 -5.643,9.2 c -2.699,4.538 -8.587,13.983 -11.898,19.136 l -26.988,0 z" /><path
       style="fill:#4e4e50"
       id="path3291"
       d="m 403.915,147.178 3.68,-27.109 c 1.104,-7.851 3.066,-23.306 3.558,-29.808 l 18.645,-0.858 c 2.208,4.784 5.275,11.898 7.851,17.419 l 15.947,35.45 15.578,-36.063 c 2.33,-5.275 5.151,-11.776 7.114,-16.561 l 18.154,0 c 0.859,7.115 2.821,22.448 3.926,30.421 l 3.803,27.109 c 1.104,7.974 3.557,23.184 4.906,29.562 l -24.165,0.981 c -0.245,-3.558 -1.35,-13.861 -2.085,-18.646 l -3.558,-27.354 c -6.011,15.088 -16.683,41.707 -18.277,45.877 l -12.757,0.613 -18.522,-45.386 -2.944,26.25 c -0.613,4.784 -1.472,14.229 -1.594,17.664 l -24.166,0 c 1.471,-6.378 3.802,-21.588 4.906,-29.561 z" /><path
       style="fill:#4e4e50"
       id="path3293"
       d="m 603.36,177.23 c -8.096,-0.49 -18.154,-0.613 -27.722,-0.613 -10.795,0 -22.325,0.123 -31.525,0.613 0.613,-5.888 0.858,-22.079 0.858,-30.053 l 0,-27.109 c 0,-7.851 -0.245,-24.41 -0.858,-30.298 8.955,0.368 18.646,0.613 29.808,0.613 10.059,0 19.504,-0.245 27.845,-0.613 -0.49,6.133 -0.98,12.021 -0.98,19.504 -6.257,-0.123 -12.513,-0.245 -19.995,-0.245 -3.68,0 -7.728,0 -11.285,0.122 -0.245,1.718 -0.245,4.294 -0.245,5.521 l 0,9.445 26.741,-0.123 c -0.245,5.152 -0.368,10.795 -0.368,17.173 l -26.374,0 0,11.04 c 0,1.35 0,3.926 0.245,5.643 3.558,0 7.605,0.123 11.285,0.123 8.71,0 16.069,-0.123 23.43,-0.368 -0.614,6.132 -0.86,12.143 -0.86,19.625 z" /><path
       style="fill:#4e4e50"
       id="path3295"
       d="m 673.151,176.74 -32.261,0 c 0.613,-5.888 0.858,-21.589 0.858,-29.562 l 0,-27.109 c 0,-7.851 -0.245,-23.429 -0.858,-29.316 4.416,0 15.333,-0.858 28.949,-0.858 32.506,0 50.538,15.578 50.538,41.951 0.001,27.598 -18.398,44.894 -47.226,44.894 z m -0.49,-68.202 c -2.576,0 -4.171,0.123 -6.134,0.368 -0.122,1.595 -0.122,4.171 -0.122,5.52 l 0,38.149 c 0,1.472 0,3.312 0.122,5.152 1.963,0.245 3.435,0.367 6.379,0.367 16.314,0 23.429,-10.794 23.429,-25.269 0,-15.455 -8.954,-24.287 -23.674,-24.287 z" /><path
       style="fill:#4e4e50"
       id="path3297"
       d="m 757.416,176.74 c 0.613,-5.888 0.858,-21.589 0.858,-29.562 l 0,-27.109 c 0,-7.851 -0.245,-23.674 -0.858,-29.562 4.783,0 22.079,-0.123 26.127,-0.613 -0.367,3.557 -0.49,13.37 -0.49,18.154 l 0,51.028 c 0,4.661 0.123,14.229 0.49,17.664 l -26.127,0 z" /><path
       style="fill:#4e4e50"
       id="path3299"
       d="m 843.768,113.936 c 4.293,-10.182 7.114,-16.56 9.445,-23.429 l 19.749,-1.227 26.864,62.313 c 3.188,7.605 7.851,17.541 11.285,25.146 l -26.128,0.981 -6.624,-16.438 -30.053,0 c -1.595,4.048 -5.152,13.738 -5.889,15.456 l -25.514,0 26.865,-62.802 z m 9.568,32.138 19.749,0 -9.937,-26.619 -9.812,26.619 z" /></g><polygon
     transform="translate(0,-24.384001)"
     style="fill:#f5a11d"
     id="polygon3301"
     points="1039.064,24.384 1039.064,90.798 980.133,57.592 " /><polygon
     transform="translate(0,-24.384001)"
     style="fill:#fee954"
     id="polygon3303"
     points="921.198,24.384 921.198,90.798 980.129,57.592 " /><g
     transform="translate(0,-24.384001)"
     id="g3305"><polygon
       style="fill:#f37b21"
       id="polygon3307"
       points="980.133,57.586 980.133,124 1039.064,90.793 " /></g><polygon
     transform="translate(0,-24.384001)"
     style="fill:#ffe504"
     id="polygon3309"
     points="980.129,57.586 980.129,124 921.199,90.793 " /><g
     transform="translate(0,-24.384001)"
     style="opacity:0.79000005"
     id="g3311"><linearGradient
       y2="60.568199"
       x2="981.92761"
       y1="93.859398"
       x1="1001.5996"
       gradientUnits="userSpaceOnUse"
       id="SVGID_1_"><stop
         id="stop3314"
         style="stop-color:#F15C26"
         offset="0" /><stop
         id="stop3316"
         style="stop-color:#F58223;stop-opacity:0.6965"
         offset="0.2551" /><stop
         id="stop3318"
         style="stop-color:#FDB518;stop-opacity:0.2212"
         offset="0.6546" /><stop
         id="stop3320"
         style="stop-color:#FFCA0B;stop-opacity:0"
         offset="0.8405" /></linearGradient><polygon
       style="fill:url(#SVGID_1_)"
       id="polygon3322"
       points="980.133,57.586 980.133,124 1039.064,90.793 " /></g><linearGradient
     y2="28.9202"
     x2="1005.8635"
     y1="118.2021"
     x1="943.06348"
     gradientUnits="userSpaceOnUse"
     id="SVGID_2_"><stop
       id="stop3325"
       style="stop-color:#FCB717"
       offset="0.195" /><stop
       id="stop3327"
       style="stop-color:#FEC212;stop-opacity:0.7652"
       offset="0.3466" /><stop
       id="stop3329"
       style="stop-color:#FFC80D;stop-opacity:0.4732"
       offset="0.5351" /><stop
       id="stop3331"
       style="stop-color:#FFCA0B;stop-opacity:0"
       offset="0.8405" /></linearGradient><polygon
     transform="translate(0,-24.384001)"
     style="opacity:0.79000005;fill:url(#SVGID_2_)"
     id="polygon3333"
     points="980.129,57.586 980.129,124 921.199,90.793 " /><polygon
     transform="translate(0,-24.384001)"
     style="fill:#f5a11d"
     id="polygon3335"
     points="1038.723,24.384 1038.723,90.75 979.834,57.568 " /><linearGradient
     y2="5.2375998"
     x2="1048.9155"
     y1="72.365196"
     x1="1010.6357"
     gradientUnits="userSpaceOnUse"
     id="SVGID_3_"><stop
       id="stop3338"
       style="stop-color:#F04E24"
       offset="0" /><stop
       id="stop3340"
       style="stop-color:#F15724;stop-opacity:0.9887"
       offset="0.0113" /><stop
       id="stop3342"
       style="stop-color:#F47523;stop-opacity:0.9371"
       offset="0.0629" /><stop
       id="stop3344"
       style="stop-color:#F68C21;stop-opacity:0.8791"
       offset="0.1209" /><stop
       id="stop3346"
       style="stop-color:#F99F1E;stop-opacity:0.815"
       offset="0.185" /><stop
       id="stop3348"
       style="stop-color:#FBAE1A;stop-opacity:0.7426"
       offset="0.2574" /><stop
       id="stop3350"
       style="stop-color:#FEBB15;stop-opacity:0.6581"
       offset="0.3419" /><stop
       id="stop3352"
       style="stop-color:#FFC410;stop-opacity:0.5536"
       offset="0.4464" /><stop
       id="stop3354"
       style="stop-color:#FFC80C;stop-opacity:0.407"
       offset="0.593" /><stop
       id="stop3356"
       style="stop-color:#FFCA0B;stop-opacity:0"
       offset="1" /></linearGradient><polygon
     transform="translate(0,-24.384001)"
     style="opacity:0.2;fill:url(#SVGID_3_)"
     id="polygon3358"
     points="1039.044,24.408 1039.044,90.773 980.153,57.593 " /><polygon
     transform="translate(0,-24.384001)"
     style="fill:#f9e796"
     id="polygon3360"
     points="920.939,24.384 920.939,90.75 979.83,57.568 " /><linearGradient
     y2="3.5971999"
     x2="911.87109"
     y1="73.217796"
     x1="949.87109"
     gradientUnits="userSpaceOnUse"
     id="SVGID_4_"><stop
       id="stop3363"
       style="stop-color:#F89F1F"
       offset="0" /><stop
       id="stop3365"
       style="stop-color:#FBAE1B;stop-opacity:0.9122"
       offset="0.0878" /><stop
       id="stop3367"
       style="stop-color:#FDBB16;stop-opacity:0.8091"
       offset="0.1909" /><stop
       id="stop3369"
       style="stop-color:#FFC311;stop-opacity:0.6806"
       offset="0.3194" /><stop
       id="stop3371"
       style="stop-color:#FFC80D;stop-opacity:0.5004"
       offset="0.4996" /><stop
       id="stop3373"
       style="stop-color:#FFCA0B;stop-opacity:0"
       offset="1" /></linearGradient><polygon
     transform="translate(0,-24.384001)"
     style="opacity:0.2;fill:url(#SVGID_4_)"
     id="polygon3375"
     points="920.939,24.384 920.939,90.75 979.83,57.568 " /><g
     transform="translate(0,-24.384001)"
     id="g3377"><polygon
       style="fill:#f37b21"
       id="polygon3379"
       points="979.834,57.563 979.834,123.929 1038.723,90.745 " /></g><polygon
     transform="translate(0,-24.384001)"
     style="fill:#ffe504"
     id="polygon3381"
     points="979.83,57.563 979.83,123.929 920.94,90.745 " /><g
     transform="translate(0,-24.384001)"
     style="opacity:0.2"
     id="g3383"><linearGradient
       y2="60.542801"
       x2="981.62762"
       y1="93.809601"
       x1="1001.2852"
       gradientUnits="userSpaceOnUse"
       id="SVGID_5_"><stop
         id="stop3386"
         style="stop-color:#F15C26"
         offset="0" /><stop
         id="stop3388"
         style="stop-color:#F58223;stop-opacity:0.6965"
         offset="0.2551" /><stop
         id="stop3390"
         style="stop-color:#FDB518;stop-opacity:0.2212"
         offset="0.6546" /><stop
         id="stop3392"
         style="stop-color:#FFCA0B;stop-opacity:0"
         offset="0.8405" /></linearGradient><polygon
       style="fill:url(#SVGID_5_)"
       id="polygon3394"
       points="979.834,57.563 979.834,123.929 1038.723,90.745 " /></g><linearGradient
     y2="28.916401"
     x2="1005.5444"
     y1="118.1348"
     x1="942.78912"
     gradientUnits="userSpaceOnUse"
     id="SVGID_6_"><stop
       id="stop3397"
       style="stop-color:#FCB717"
       offset="0.195" /><stop
       id="stop3399"
       style="stop-color:#FEC212;stop-opacity:0.7652"
       offset="0.3466" /><stop
       id="stop3401"
       style="stop-color:#FFC80D;stop-opacity:0.4732"
       offset="0.5351" /><stop
       id="stop3403"
       style="stop-color:#FFCA0B;stop-opacity:0"
       offset="0.8405" /></linearGradient><polygon
     transform="translate(0,-24.384001)"
     style="opacity:0.1;fill:url(#SVGID_6_)"
     id="polygon3405"
     points="979.83,57.563 979.83,123.929 920.94,90.745 " /></svg>