<?xml version="1.0" encoding="UTF-8" standalone="no"?>
<svg width="512px" height="512px" viewBox="0 0 512 512" version="1.1" xmlns="http://www.w3.org/2000/svg" xmlns:xlink="http://www.w3.org/1999/xlink" xmlns:sketch="http://www.bohemiancoding.com/sketch/ns">
  <path fill="white" d="M16.7429696,289.934029 L16.7429696,458.867065 C16.7429696,481.160847 35.3814834,499.299461 58.2908753,499.299461 L169.597151,499.299461 C158.836328,474.699234 146.091015,460.197252 131.645088,456.148988 C126.701358,454.785444 121.474518,454.593973 115.421116,454.373782 C104.509342,453.975797 90.9286642,453.482077 76.2824173,444.961637 C62.747265,436.971845 52.4401198,424.838083 45.5544632,408.844822 C42.2496325,401.168221 46.043857,392.367414 54.029227,389.190371 C62.0160196,386.010592 71.1679678,389.662209 74.4742211,397.337442 C78.7820245,407.344514 84.8724162,414.724335 92.5732549,419.271761 C100.204384,423.709775 107.442859,423.97373 116.606188,424.307436 C123.672522,424.564554 131.682078,424.855863 140.341787,427.245141 C166.794658,434.659154 187.053285,457.505693 202.339727,497.107272 C202.619449,497.832288 202.837382,498.564799 202.996073,499.299461 L284.656131,499.299461 C286.965782,487.427519 286.935693,475.772879 284.558741,464.571863 C278.13945,434.869939 253.955243,407.184778 222.957351,394.096741 C199.121645,384.005953 178.839782,386.655918 159.224803,389.220805 C135.853764,392.279423 111.691069,395.43846 87.6674882,376.424263 C76.9156055,367.94577 67.9736302,356.324976 62.5094881,343.719511 C58.195844,333.771593 56.334782,323.968287 56.9590722,314.78635 C41.9611009,308.809842 28.4371262,300.451076 16.7429696,289.934029 Z M16.7429696,239.54762 L16.7429696,180.284334 C27.1524231,185.641291 38.480441,188.935397 49.6407882,189.598941 C66.7574642,190.61848 81.7759671,185.434312 93.0986447,174.588981 C103.850527,164.252723 106.599808,152.820216 109.782205,139.582944 C112.444002,128.517248 115.756907,114.744403 125.183628,95.8389951 C134.825472,76.3352527 141.01243,68.9097718 148.003951,68.438357 C158.159223,67.7284453 175.07942,80.5277763 177.655168,99.6493659 C179.539651,113.063768 174.352302,122.234041 168.346048,132.852033 C161.694423,144.609509 153.417897,159.2415 159.333799,177.9907 C165.62545,197.893332 182.836781,206.235143 196.666366,212.936765 C211.089694,219.927093 220.162177,224.805818 224.732839,236.475427 C228.668169,246.59411 229.234661,261.534333 224.078863,266.406085 C220.619674,269.689252 208.893998,266.979314 196.48136,264.111773 C175.227138,259.200969 146.116599,252.475637 111.924837,262.703107 C102.902286,265.361173 82.2939291,271.430924 68.9482506,286.448589 C57.42349,281.838466 47.0611385,275.406982 38.1547127,267.339738 C29.3172038,259.310683 22.1238233,249.971901 16.7429696,239.54762 Z M498.953781,114.591176 L498.953781,198.311405 C497.548158,199.463488 496.327786,200.875258 495.37497,202.524288 C486.842982,217.286951 473.462229,235.245568 458.304457,236.943114 C452.254267,237.571164 448.787788,235.603459 439.624226,229.842386 C430.529563,224.124482 418.07464,216.294046 398.310685,211.96593 C376.863012,207.281316 362.671261,210.117986 351.267047,212.39902 C341.457557,214.359763 334.978184,215.653463 324.560087,212.362814 C299.206704,204.251078 285.449877,179.826745 277.22937,165.232584 L277.002577,164.828738 C258.70129,132.009977 260.156781,100.287172 261.440024,72.2992459 L261.464426,71.7770312 C262.361113,53.226538 265.404036,34.6117671 270.525195,16.2935206 L330.612166,16.293521 C316.774675,31.9003135 304.026832,52.4264552 298.402056,78.2615335 C294.476492,95.6315177 286.306535,131.777011 310.890418,157.544973 C323.46845,170.626628 341.294327,177.852632 358.686086,177.852632 C365.872517,177.852632 372.98351,176.618752 379.620532,174.055322 C408.850188,162.729518 422.907068,135.065012 425.138861,123.424055 C428.130716,107.702995 429.777517,91.3094221 430.990201,77.3315514 C431.334648,74.1012352 433.187834,71.2128035 435.959071,69.5948316 C436.115639,69.503381 436.269359,69.4105235 436.423079,69.3134452 C440.230507,67.3578095 445.257734,67.9374655 448.734947,70.7808754 C467.056146,85.6591827 482.685813,99.3598878 496.512113,112.666652 C497.2744,113.400416 498.093011,114.041857 498.953781,114.591176 Z M498.953781,72.5695095 L498.953781,56.7259179 C498.953781,34.4321352 480.316701,16.293521 457.405876,16.293521 L376.020363,16.293521 C375.296977,17.1665224 374.465125,17.97437 373.527225,18.6976547 C357.010818,31.4360182 335.877105,53.2589426 328.989576,84.8924047 C326.001991,98.1091251 320.490828,122.492666 333.631079,136.266532 C341.301444,144.245244 356.3632,149.808253 368.208213,145.231503 C385.960077,138.354419 393.570662,120.885949 394.384811,117.599356 C397.116195,103.210661 398.656246,87.7752086 399.802033,74.5697436 C399.807726,74.5064317 399.813419,74.4445266 399.820536,74.3812147 C401.08446,61.6428512 408.31359,50.141181 419.224894,43.4287077 C420.17426,42.7787051 421.008336,42.3439631 421.574824,42.0611697 C436.54691,34.1626527 455.42748,36.0915567 468.64886,46.8939816 C479.591832,55.7802027 489.636475,64.2886721 498.953781,72.5695095 Z M498.953781,249.050956 L498.953781,289.945375 C484.010941,291.989684 469.210648,292.136094 454.887289,290.372058 C439.159833,288.416798 428.176638,284.799914 417.554668,281.304104 C402.650631,276.395774 388.568592,271.753249 367.225102,273.407914 C355.82522,274.180277 321.479095,276.565555 303.757797,302.567036 C284.10381,331.305882 299.332095,366.760803 302.584531,373.575685 C302.608708,373.625784 302.632884,373.674492 302.65706,373.725983 C312.956205,394.71337 328.508738,403.509953 343.5493,412.017075 C352.392172,417.018644 361.535116,422.189994 370.769077,430.343638 C389.092253,446.637588 402.065582,469.820861 409.366395,499.299461 L316.634983,499.299461 C318.679369,485.421816 318.287193,471.695424 315.446202,458.313761 C306.978934,419.131936 275.606727,382.874836 235.536351,365.956902 C203.644979,352.456027 176.684243,355.977691 155.019852,358.811759 C132.67567,361.7323 120.419355,362.782523 107.562128,352.608052 C93.7325425,341.701354 85.4215968,323.11952 89.3884779,312.098455 C93.7712648,300.11085 112.901499,294.476188 121.135,292.049378 C147.182178,284.26127 169.499111,289.416149 189.188667,293.965721 C209.361533,298.625475 230.222796,303.447017 246.091755,288.388242 C262.451195,272.926393 261.785746,245.013894 254.232035,225.588255 C245.029043,202.092829 226.01641,192.879319 210.739759,185.474759 C198.648373,179.615547 191.701311,175.95999 189.495576,168.982213 C187.669893,163.199711 189.826867,158.537167 195.989444,147.641627 C202.836114,135.539655 212.212639,118.963427 208.926983,95.5795775 C204.519816,62.8566938 175.056473,35.850761 145.829767,37.8284717 C117.925354,39.7071575 104.669432,66.5220139 96.7715234,82.495724 C85.8346343,104.429066 81.9193829,120.708219 79.0611059,132.595404 C76.3835329,143.728047 75.0268194,148.817374 70.9380349,152.746296 C66.1250005,157.355841 59.6081865,159.456287 51.5682966,158.972319 C39.5208666,158.255661 26.091175,151.761359 16.7429696,142.39588 L16.7429696,56.7259179 C16.7429696,34.4321352 35.3814834,16.293521 58.2908753,16.293521 L237.929233,16.293521 C233.479473,34.1708529 230.792913,52.2833488 229.918748,70.3788882 L229.892911,70.9373099 C228.572348,99.7134317 226.765185,139.124631 249.260697,179.464677 L249.519068,179.924226 C258.5922,196.034899 277.474822,229.558301 314.726195,241.474545 C333.158103,247.299677 346.162782,244.699744 357.638766,242.404784 C367.798492,240.374413 376.570191,238.619771 391.366244,241.853325 C405.628329,244.975473 414.180413,250.352196 422.449724,255.552063 C431.550129,261.272751 441.734257,267.677193 456.365239,267.677193 C458.106373,267.677193 459.910664,267.585283 461.783855,267.393108 C475.17865,265.894003 487.4961,259.839475 498.953781,249.050956 Z M498.953781,388.281566 L498.953781,320.816195 C482.741641,322.698741 466.644592,322.677621 450.963602,320.746086 C432.131612,318.406732 419.086314,314.110726 407.576927,310.321278 C394.254312,305.933424 384.62784,302.763258 369.622831,303.932239 C369.570212,303.937806 369.517593,303.940589 369.464973,303.944764 C361.138339,304.509772 339.018359,306.009964 329.773021,319.574321 C319.206514,335.025747 330.100113,358.85348 330.903623,360.559636 C337.018829,372.960578 345.851746,377.956581 359.207071,385.509035 C368.975757,391.035254 380.049968,397.299045 391.771253,407.651487 C395.423743,410.899368 398.902018,414.344063 402.204623,417.982792 C412.736526,409.899909 427.786471,400.711005 447.181526,394.682858 C463.968748,389.422708 481.331202,387.279776 498.953781,388.281566 Z M498.953781,419.562281 L498.953781,458.867065 C498.953781,481.160847 480.316701,499.299461 457.405876,499.299461 L441.26649,499.299461 C441.215353,498.535505 441.104905,497.765671 440.93182,496.995048 C436.40857,476.867035 429.614751,458.943177 420.613517,443.344144 C428.848234,436.882647 440.898341,429.348395 456.649365,424.453255 C470.337938,420.163446 484.531332,418.527952 498.95378,419.562295 Z"></path>
</svg>
