<svg version="1.1" class="logo" xmlns="http://www.w3.org/2000/svg" xmlns:xlink="http://www.w3.org/1999/xlink" x="0px" y="0px"
	 viewBox="0 0 255 255" style="enable-background:new 0 0 255 255;" xml:space="preserve">
<style type="text/css">
	.st0{fill:#FFFFFF;}
</style>
<title>Artboard 1</title>
<g>
	<path class="st0" d="M163.5,38.1c-2.8,12.8-2.1,21.9,2.1,26.9c5.6,6.7,18.4,5.6,25.7,0.2c5.8-4.3,7.7-12.3,8.9-19.6
		c0.2-1.5,0.4-3.4,0.6-5.3c0.7-8.6,1.8-21.6,13.4-27c16.8-7.9,31.6,9.5,39.7,18.9c0.5,0.6,1.2,1.1,1.2,1.6v-8.9
		c0.1-13.6-10.8-24.7-24.3-24.8c-0.1,0-0.2,0-0.3,0h-43.7C174.1,12,166.5,24.4,163.5,38.1z"/>
	<path class="st0" d="M255,198.2v-38.5c-16,2.7-31.2-1.1-45.9-4.9c-7.3-2-14.7-3.6-22.1-4.8c-11.6-1.5-20.6,3.8-24.9,14.6
		c-6,15.2,7,25.6,25.9,38.7c5.6,3.9,10.5,7.2,14.1,10.7c7.1-7.6,15-12.5,23.8-14.5C235.8,197.3,246,197.6,255,198.2z"/>
	<path class="st0" d="M153.8,99.7c1.3,1,2.7,1.9,4.2,2.7c6,3.4,10.6,4.2,16.4,2.8c1.1-0.3,2.3-0.6,3.4-0.9c4.6-1.2,9.7-2.6,15.3-2.2
		c7.8,0.4,14.4,4,20.6,7.6l0.6,0.3c4.7,2.8,9.2,5.4,13.7,6c6.3,0.9,11.2-4.9,17.5-13.1l0.5-0.7c0.6-0.8,1.2-1.8,2-2.8
		c2.6-3.2,4.9-6.5,7-10.1V57.8c-1-2.2-3.4-4.5-5-6.7s-3.3-4.6-5.1-6.5c-0.7-0.8-1.4-1.7-2.2-2.6c-5.1-5.9-15.6-18.1-22.1-15.1
		c-3.5,1.6-4.2,7.1-4.8,14.7c-0.2,2.2-0.4,4.4-0.7,6.4c-1.5,9.6-4.6,21.9-14.7,29.4c-6.7,4.9-14.7,7.5-23,7.6l0,0
		c-9.6,0-17.8-3.8-23.2-10.3c-7.4-8.9-9.1-21.9-5.2-39.7c2.7-12.5,8.4-24,17.4-35h-33.5c-2.3,13-4.4,31.6-2.6,49.7
		C132.4,73.1,140.4,89.9,153.8,99.7z"/>
	<path class="st0" d="M81,130.4l3.4,0.4c1.9,0.2,4,0.6,6.2,1c8.1,1.4,19.2,3.4,22.5-1.6c2.7-4.1-0.8-12.9-5.7-18.2
		c-3.5-3.8-7.9-6.9-12.5-10.2c-2.7-1.9-5.5-3.9-8.2-6.1c-6.4-5.2-13.3-12.8-9.4-25.4c1.3-3.8,3-7.4,5-10.8c1.9-3.4,3.5-6.3,4.2-9.5
		c1.1-5.6-1.6-16.6-6.7-22c-2.7-2.8-4.7-2.8-6.1-2.6C62.8,27,58.7,38.5,54.1,54.6c-1.1,3.8-2.1,7.3-3.3,10.5l-0.1,0.4
		c-3.2,8.8-8,22.1-20.7,25.6C19.4,94,9,89,0,82.8v32c3,6,8,11.9,14.7,17.8c5.5,4.6,11.4,8.8,17.6,12.3c3.9-6.3,9.9-11.1,16.9-13.6
		C60,127.5,71.1,129,81,130.4z"/>
	<path class="st0" d="M229.2,214.2c-6.6,1.5-12.5,5.4-18.1,12.1c4.9,9,8.5,18.7,10.6,28.8h8.6c13.5,0,24.6-10.9,24.6-24.4
		c0-0.1,0-0.2,0-0.3v-17C246,212.7,237.5,212.3,229.2,214.2z"/>
	<path class="st0" d="M26,76.6c5.2-1.4,8.3-10,10.5-16.2l0.1-0.4c1-2.8,2-6.1,3-9.6c4.5-15.5,10.6-36.8,31.8-39.9
		c7-1,13.8,1.6,19.1,7.2c9,9.5,12.4,25.6,10.5,35.2c-1.1,5.4-3.6,9.9-5.8,13.8c-1.5,2.5-2.8,5.2-3.8,8c-0.9,3-0.8,5,4.6,9.3
		c2.3,1.9,4.8,3.7,7.5,5.6c5,3.6,10.2,7.3,14.7,12.2c7.4,7.9,15.4,24.3,7.3,36.7c-8.8,13.3-26.2,10.2-37.7,8.1
		c-2-0.4-3.9-0.7-5.5-0.9l-3.5-0.5c-8.6-1.2-17.5-2.4-24.9,0.1c-7.1,2.4-12.6,10.7-12.8,19.3c-0.1,3.8,0.8,10.5,8.3,13.5
		c9.2,3.7,19.4,3.3,30.2,2.8c11.6-0.5,23.6-1,35.5,3.5c16,6.1,30.6,20.4,38,37.7c4.8,11.1,6.3,22.8,4.4,32.8h48.8
		c-2-8-6.4-21.3-14.1-29.7c-2.5-2.8-7.5-6.1-12.8-9.8c-16.8-11.6-42.1-29.1-31.3-56.5c6.8-17.2,22.4-26.3,40.8-23.9
		c8.3,1.1,16.1,3.1,23.8,5.1c14.5,3.7,28.2,7.2,42.2,4.1v-29.9c-5,7.5-13.8,16.5-25.8,16.5c-1.1,0-2.3-0.1-3.4-0.2
		c-7.4-1-13.6-4.7-19.1-7.9l-0.6-0.3c-4.8-2.8-9.4-5.3-13.9-5.6c-3.2-0.2-6.8,0.8-10.6,1.8c-1.3,0.3-2.5,0.7-3.8,1
		c-9.5,2.3-17.9,0.9-27.3-4.3c-1.9-1.1-3.8-2.3-5.6-3.6c-17-12.4-27-32.7-29.7-60.6c-1.8-18.6,0-37.2,2.3-51.2H25
		C11.2,0,0.1,11.1,0,24.8v38.8C7,70,18.4,78.7,26,76.6z"/>
	<path class="st0" d="M62.8,231.9c-20.2-1.1-32.2-2.7-43.4-23.9c-1.9-3.7-0.5-8.2,3.1-10.1c3.7-1.9,8.2-0.5,10.1,3.1
		c7.5,14.2,12.6,14.9,31,15.9c14.4,0.8,26.2,14.1,35,38.1h43.7c2.1-8,1.2-17.6-2.8-26.9c-5.9-13.6-17.2-24.9-29.6-29.6
		c-9-3.4-19-3-29.5-2.5C68.5,196.4,56.2,197,44,192c-11.4-4.6-18-15-17.6-27.9c0-1.8,0.2-3.6,0.5-5.3C17.1,153.6,8.1,147,0,139.4
		v90.8C0.1,244,11.2,255.1,25,255c0,0,0,0,0,0h57.5C78.3,245,71.4,232.3,62.8,231.9z"/>
</g>
</svg>